<?xml version="1.0" encoding="UTF-8" standalone="no"?>
<!DOCTYPE svg PUBLIC "-//W3C//DTD SVG 1.1//EN" "http://www.w3.org/Graphics/SVG/1.1/DTD/svg11.dtd">
<svg xmlns="http://www.w3.org/2000/svg" xmlns:xlink="http://www.w3.org/1999/xlink" version="1.1" width="241.313pt" height="203.506pt" viewBox="0 0 241.313 203.506">
<path transform="matrix(1,0,0,-1,34.481,172.565)" d="M -13.33205 -2.40332 L -12.1433 -2.29189 L -10.95454 -2.18011 L -9.76578 -2.06795 L -8.57701 -1.9554 L -7.38824 -1.84242 L -6.19948 -1.7291 L -5.01071 -1.61537 L -3.82195 -1.50122 L -2.63321 -1.38669 L -1.44444 -1.27174 L -.25568 -1.15636 L .93307 -1.0406 L 2.12184 -.92438 L 3.31061 -.80775 L 4.49937 -.69067 L 5.68811 -.57318 L 6.87688 -.45523 L 8.06564 -.33682 L 9.25441 -.21799 L 10.44318 -.09866 L 11.63194 .02109 L 12.82071 .14133 L 14.00945 .26204 L 15.19821 .38324 L 16.38698 .50491 L 17.57574 .62709 L 18.76451 .74976 L 19.95328 .87291 L 21.14204 .9966 L 22.3308 1.1208 L 23.51955 1.24551 L 24.70831 1.37077 L 25.89708 1.49655 L 27.08585 1.62288 L 28.27461 1.74977 L 29.46338 1.8772 L 30.65213 2.0052 L 31.8409 2.13379 L 33.02966 2.26295 L 34.21841 2.3927 L 35.40718 2.52304 L 36.59595 2.65399 L 37.78471 2.78554 L 38.97346 2.91772 L 40.16223 3.05052 L 41.351 3.184 L 42.53975 3.3181 L 43.72852 3.45287 L 44.91728 3.58829 L 46.10605 3.72438 L 47.2948 3.8612 L 48.48357 3.99869 L 49.67233 4.1369 L 50.86108 4.27582 L 52.04985 4.4155 L 53.23862 4.55592 L 54.42737 4.69707 L 55.61612 4.839 L 56.80487 4.98172 L 57.99364 5.12521 L 59.1824 5.26956 L 60.37115 5.41469 L 61.55992 5.56068 L 62.74867 5.7075 L 63.93742 5.85521 L 65.12619 6.00377 L 66.31494 6.15324 L 67.50371 6.30365 L 68.69246 6.45497 L 69.88123 6.60722 L 71.06999 6.76047 L 72.25873 6.91469 L 73.4475 7.06993 L 74.63625 7.22617 L 75.82501 7.38347 L 77.01378 7.54184 L 78.20253 7.70128 L 79.3913 7.86185 L 80.58003 8.02354 L 81.7688 8.18642 L 82.95757 8.35045 L 84.14632 8.51572 L 85.33508 8.68219 L 86.52383 8.84996 L 87.7126 9.019 L 88.90137 9.18939 L 90.0901 9.36113 L 91.27887 9.53423 L 92.46762 9.70879 L 93.65639 9.88481 L 94.84515 10.0623 L 96.0339 10.24136 L 97.22267 10.42198 L 98.4114 10.60422 L 99.60017 10.78815 L 100.78894 10.97377 L 101.97769 11.16115 L 103.16646 11.35033 L 104.35521 11.54138 L 105.54398 11.73434 L 106.73273 11.92932 L 107.92148 12.1263 L 109.11024 12.3254 L 110.299 12.52669 L 111.48776 12.73022 L 112.67653 12.93607 L 113.86528 13.14432 L 115.05403 13.35509 L 116.24278 13.56842 L 117.43155 13.78445 L 118.62032 14.00327 L 119.80907 14.22499 L 120.99783 14.4497 L 122.18658 14.67758 L 123.37534 14.90872 L 124.5641 15.1433 L 125.75285 15.38121 L 126.94162 15.62312 L 128.13037 15.86897 L 129.31914 16.11897 L 130.5079 16.37329 L 131.69664 16.6322 L 132.8854 16.89595 L 134.07416 17.16484 L 135.26293 17.43913 L 136.45169 17.71922 L 137.64044 18.00548 L 138.82921 18.2983 L 140.01795 18.59818 L 141.20671 18.90565 L 142.39548 19.22134 L 143.58423 19.54591 L 144.773 19.8802 L 145.96175 20.2251 L 147.15052 20.5817 L 148.33927 20.95126 L 149.52802 21.33534 L 150.71678 21.7358 L 151.90554 22.1549 L 153.0943 22.59555 L 154.28307 23.0614 L 155.47182 23.55742 L 156.66057 24.09032 L 157.84932 24.66983 L 159.03809 25.3108 L 160.22686 26.03839 L 161.4156 26.90132 L 162.60437 28.02585 L 163.79312 30.67468 L 163.79122 30.95877 L 162.00978 36.385 L 160.22837 38.71924 L 158.44693 40.51065 L 156.6655 42.02151 L 154.88408 43.3524 L 153.10265 44.55566 L 151.32122 45.66199 L 149.53978 46.69196 L 147.75836 47.65933 L 145.97693 48.57448 L 144.1955 49.44473 L 142.41408 50.27611 L 140.63265 51.07365 L 138.85121 51.84122 L 137.06978 52.58168 L 135.28836 53.29759 L 133.50693 53.99185 L 131.7255 54.66585 L 129.94408 55.32173 L 128.16265 55.9601 L 126.38121 56.58296 L 124.5998 57.19182 L 122.81837 57.78477 L 121.03694 58.36714 L 119.25551 58.93643 L 117.47409 59.4955 L 115.69266 60.04189 L 113.91122 60.58025 L 112.1298 61.10806 L 110.34837 61.62784 L 108.56694 62.13902 L 106.7855 62.64014 L 105.00409 63.13443 L 103.22266 63.6222 L 101.44122 64.10281 L 99.6598 64.57486 L 97.87837 65.04129 L 96.09694 65.5023 L 94.31552 65.95728 L 92.53409 66.40562 L 90.75266 66.84758 L 88.97122 67.28581 L 87.1898 67.71884 L 85.40837 68.14609 L 83.62694 68.5677 L 81.84552 68.98624 L 80.06409 69.39948 L 78.28265 69.80908 L 76.50122 70.21297 L 74.7198 70.6142 L 72.93837 71.01147 L 71.15694 71.40413 L 69.37552 71.79375 L 67.59409 72.17827 L 65.81265 72.56068 L 64.03122 72.93893 L 62.2498 73.3145 L 60.46837 73.68541 L 58.68694 74.05452 L 56.90552 74.4198 L 55.12408 74.78276 L 53.34265 75.14275 L 51.56123 75.4985 L 49.7798 75.85213 L 47.99837 76.20363 L 46.21693 76.55246 L 44.43552 76.89735 L 42.65408 77.24033 L 40.87265 77.58144 L 39.09123 77.92006 L 37.3098 78.25566 L 35.52835 78.58829 L 33.74692 78.91983 L 31.9655 79.24911 L 30.18407 79.57558 L 28.40263 79.89928 L 26.62122 80.22205 L 24.83978 80.54272 L 23.05835 80.86076 L 21.27693 81.17737 L 19.4955 81.49086 L 17.71405 81.803 L 15.93263 82.11438 L 14.15121 82.42274 L 12.36978 82.72871 L 10.58835 83.03401 L 8.80692 83.33699 L 7.02548 83.63878 L 5.24405 83.93887 L 3.46262 84.23618 L 1.6812 84.53238 L -.10022 84.82751 L -1.88165 85.12103 L -3.66307 85.4119 L -5.4445 85.70177 L -7.22594 85.99065 L -9.00737 86.27803 L -10.7888 86.5634 L -12.57022 86.8468 Z " fill="#cccce6"/>
<path transform="matrix(1,0,0,-1,34.481,172.565)" d="M -12.57022 86.8468 L -10.7888 86.5634 L -9.00737 86.27803 L -7.22594 85.99065 L -5.4445 85.70177 L -3.66307 85.4119 L -1.88165 85.12103 L -.10022 84.82751 L 1.6812 84.53238 L 3.46262 84.23618 L 5.24405 83.93887 L 7.02548 83.63878 L 8.80692 83.33699 L 10.58835 83.03401 L 12.36978 82.72871 L 14.15121 82.42274 L 15.93263 82.11438 L 17.71405 81.803 L 19.4955 81.49086 L 21.27693 81.17737 L 23.05835 80.86076 L 24.83978 80.54272 L 26.62122 80.22205 L 28.40263 79.89928 L 30.18407 79.57558 L 31.9655 79.24911 L 33.74692 78.91983 L 35.52835 78.58829 L 37.3098 78.25566 L 39.09123 77.92006 L 40.87265 77.58144 L 42.65408 77.24033 L 44.43552 76.89735 L 46.21693 76.55246 L 47.99837 76.20363 L 49.7798 75.85213 L 51.56123 75.4985 L 53.34265 75.14275 L 55.12408 74.78276 L 56.90552 74.4198 L 58.68694 74.05452 L 60.46837 73.68541 L 62.2498 73.3145 L 64.03122 72.93893 L 65.81265 72.56068 L 67.59409 72.17827 L 69.37552 71.79375 L 71.15694 71.40413 L 72.93837 71.01147 L 74.7198 70.6142 L 76.50122 70.21297 L 78.28265 69.80908 L 80.06409 69.39948 L 81.84552 68.98624 L 83.62694 68.5677 L 85.40837 68.14609 L 87.1898 67.71884 L 88.97122 67.28581 L 90.75266 66.84758 L 92.53409 66.40562 L 94.31552 65.95728 L 96.09694 65.5023 L 97.87837 65.04129 L 99.6598 64.57486 L 101.44122 64.10281 L 103.22266 63.6222 L 105.00409 63.13443 L 106.7855 62.64014 L 108.56694 62.13902 L 110.34837 61.62784 L 112.1298 61.10806 L 113.91122 60.58025 L 115.69266 60.04189 L 117.47409 59.4955 L 119.25551 58.93643 L 121.03694 58.36714 L 122.81837 57.78477 L 124.5998 57.19182 L 126.38121 56.58296 L 128.16265 55.9601 L 129.94408 55.32173 L 131.7255 54.66585 L 133.50693 53.99185 L 135.28836 53.29759 L 137.06978 52.58168 L 138.85121 51.84122 L 140.63265 51.07365 L 142.41408 50.27611 L 144.1955 49.44473 L 145.97693 48.57448 L 147.75836 47.65933 L 149.53978 46.69196 L 151.32122 45.66199 L 153.10265 44.55566 L 154.88408 43.3524 L 156.6655 42.02151 L 158.44693 40.51065 L 160.22837 38.71924 L 162.00978 36.385 L 163.79122 30.95877 L 163.79206 31.19409 L 162.4954 42.87718 L 161.19878 47.8978 L 159.90216 51.75102 L 158.60552 54.99977 L 157.30889 57.86241 L 156.01224 60.4502 L 154.7156 62.82994 L 153.41896 65.04507 L 152.12235 67.1256 L 150.8257 69.09343 L 149.52907 70.96501 L 148.23244 72.75339 L 146.93579 74.46854 L 145.63916 76.1191 L 144.34253 77.71158 L 143.0459 79.25174 L 141.74925 80.74472 L 140.45262 82.19423 L 139.15599 83.604 L 137.85936 84.97714 L 136.56273 86.31642 L 135.26609 87.62416 L 133.96945 88.90253 L 132.6728 90.15332 L 131.37618 91.37834 L 130.07955 92.57913 L 128.78292 93.75699 L 127.48628 94.91328 L 126.18964 96.04913 L 124.893 97.16504 L 123.59637 98.2631 L 122.29974 99.34357 L 121.0031 100.40688 L 119.70647 101.45459 L 118.40984 102.48701 L 117.11319 103.50522 L 115.81657 104.50812 L 114.51993 105.4988 L 113.2233 106.47533 L 111.92665 107.4406 L 110.63002 108.39223 L 109.33339 109.33322 L 108.03676 110.26341 L 106.74013 111.18283 L 105.44348 112.0918 L 104.14685 112.99086 L 102.8502 113.87976 L 101.55359 114.75966 L 100.25694 115.63074 L 98.96031 116.49182 L 97.66368 117.34523 L 96.36703 118.19017 L 95.07042 119.02711 L 93.77377 119.85616 L 92.47714 120.6769 L 91.1805 121.49126 L 89.88387 122.298 L 88.58722 123.09767 L 87.2906 123.89012 L 85.99397 124.67621 L 84.69733 125.45583 L 83.4007 126.22884 L 82.10405 126.99585 L 80.80742 127.75717 L 79.51079 128.51158 L 78.21416 129.26085 L 76.91751 130.0048 L 75.62088 130.74224 L 74.32425 131.47528 L 73.02762 132.20203 L 71.73099 132.92453 L 70.43434 133.64167 L 69.13771 134.35388 L 67.84106 135.06125 L 66.54443 135.76348 L 65.24782 136.46134 L 63.95117 137.15464 L 62.65454 137.84372 L 61.3579 138.52765 L 60.06126 139.20798 L 58.76463 139.88329 L 57.468 140.55533 L 56.17136 141.22234 L 54.87473 141.88623 L 53.5781 142.54587 L 52.28145 143.20175 L 50.98483 143.85379 L 49.68819 144.50167 L 48.39156 145.14633 L 47.09491 145.78722 L 45.79828 146.42452 L 44.50163 147.05841 L 43.205 147.68895 L 41.90837 148.31607 L 40.61172 148.93982 L 39.3151 149.5599 L 38.01845 150.1772 L 36.72182 150.79143 L 35.42517 151.40195 Z " fill="#e0e0f0"/>
<path transform="matrix(1,0,0,-1,34.481,172.565)" d="M 27.80685 1.69978 L 28.07272 1.72816 L 28.3386 1.75662 L 28.60446 1.78506 L 28.87035 1.81357 L 29.13622 1.84209 L 29.40208 1.8706 L 29.66795 1.8992 L 29.93382 1.92778 L 30.19969 1.95642 L 30.46556 1.98508 L 30.73145 2.01376 L 30.99731 2.04248 L 31.26318 2.07123 L 31.52905 2.1 L 31.79494 2.12878 L 32.06079 2.15764 L 32.32666 2.1865 L 32.59253 2.2154 L 32.85841 2.24431 L 33.12428 2.27325 L 33.39015 2.30225 L 33.65604 2.33124 L 33.9219 2.36026 L 34.18777 2.38931 L 34.45363 2.41843 L 34.71951 2.44756 L 34.98538 2.47672 L 35.25125 2.50592 L 35.51712 2.53513 L 35.783 2.56436 L 36.04887 2.59363 L 36.31476 2.62296 L 36.58061 2.6523 L 36.84648 2.68166 L 37.11235 2.71106 L 37.37823 2.74048 L 37.6441 2.76994 L 37.90997 2.79945 L 38.17584 2.82895 L 38.44173 2.85852 L 38.7076 2.8881 L 38.97345 2.91772 L 39.23932 2.94737 L 39.5052 2.97704 L 39.77107 3.00676 L 40.03694 3.0365 L 40.30283 3.0663 L 40.5687 3.0961 L 40.83456 3.12593 L 41.10043 3.15582 L 41.3663 3.18571 L 41.63217 3.21567 L 41.89804 3.24562 L 42.16391 3.2756 L 42.4298 3.30566 L 42.69566 3.33574 L 42.96155 3.36581 L 43.2274 3.39597 L 43.49327 3.42613 L 43.75914 3.45633 L 44.02502 3.48657 L 44.2909 3.51685 L 44.55676 3.54715 L 44.82263 3.57747 L 45.08852 3.60785 L 45.35439 3.63826 L 45.62025 3.66869 L 45.88611 3.69916 L 46.152 3.72966 L 46.41786 3.76021 L 46.68373 3.79079 L 46.94962 3.82141 L 47.21548 3.85205 L 47.48135 3.88274 L 47.74722 3.91344 L 48.0131 3.94418 L 48.27896 3.97498 L 48.54483 4.00578 L 48.8107 4.03667 L 49.07658 4.06755 L 49.34245 4.0985 L 49.60832 4.12944 L 49.87419 4.16046 L 50.14006 4.19148 L 50.40591 4.22255 L 50.67178 4.25366 L 50.93765 4.2848 L 51.20352 4.31598 L 51.46939 4.3472 L 51.73526 4.37846 L 52.00113 4.40974 L 52.267 4.44109 L 52.53287 4.47244 L 52.79872 4.50386 L 53.06459 4.53531 L 53.33046 4.56677 L 53.59633 4.5983 L 53.8622 4.62987 L 54.12807 4.66147 L 54.39394 4.69307 L 54.6598 4.72476 L 54.92567 4.75648 L 55.19153 4.78824 L 55.4574 4.82 L 55.72327 4.85184 L 55.98914 4.88368 L 56.255 4.91562 L 56.52087 4.94756 L 56.78674 4.97955 L 57.05261 5.01157 L 57.31848 5.04362 L 57.58434 5.07573 L 57.8502 5.10788 L 58.11607 5.14005 L 58.38194 5.17227 L 58.64781 5.20454 L 58.91368 5.23686 L 59.17953 5.26921 L 59.4454 5.3016 L 59.71127 5.33401 L 59.97713 5.3665 L 60.243 5.399 L 60.50887 5.43155 L 60.77473 5.46416 L 61.0406 5.49681 L 61.30647 5.52948 L 61.57234 5.5622 L 61.83821 5.59496 L 62.10406 5.62778 L 62.36993 5.66063 L 62.6358 5.69353 L 62.90167 5.72647 L 63.16754 5.75945 L 63.43341 5.79248 L 63.69928 5.82555 L 63.96515 5.85867 L 64.23102 5.89182 L 64.49687 5.925 L 64.76274 5.95825 L 65.02861 5.99155 L 65.29448 6.02489 L 65.56035 6.05826 L 65.82622 6.09169 L 66.09209 6.12515 L 66.35796 6.15866 L 66.62383 6.19223 L 66.88968 6.22585 L 67.15555 6.25949 L 67.42142 6.2932 L 67.41814 72.21603 L 67.01802 72.30211 L 66.61792 72.38872 L 66.2178 72.47444 L 65.81769 72.55928 L 65.41757 72.64464 L 65.01746 72.73053 L 64.61734 72.81485 L 64.21722 72.8997 L 63.81712 72.98439 L 63.417 73.0689 L 63.01689 73.15324 L 62.61678 73.23743 L 62.21666 73.32074 L 61.81654 73.40529 L 61.41643 73.48895 L 61.01631 73.57178 L 60.61621 73.65514 L 60.2161 73.73764 L 59.81598 73.82205 L 59.41586 73.90424 L 59.01575 73.98627 L 58.61563 74.06882 L 58.21552 74.15192 L 57.81541 74.23416 L 57.4153 74.31555 L 57.01518 74.39749 L 56.61507 74.47995 L 56.21495 74.56091 L 55.81483 74.6424 L 55.41472 74.72304 L 55.0146 74.80423 L 54.6145 74.88591 L 54.21439 74.96678 L 53.81427 75.04686 L 53.41415 75.12744 L 53.01404 75.20854 L 52.61392 75.2882 L 52.2138 75.36833 L 51.8137 75.44766 L 51.41359 75.5282 L 51.01347 75.60791 L 50.61336 75.6875 L 50.21324 75.76627 L 49.81313 75.84624 L 49.41301 75.92538 L 49.0129 76.00375 L 48.6128 76.08264 L 48.21268 76.16075 L 47.81256 76.24 L 47.41245 76.31848 L 47.01233 76.39618 L 46.61221 76.47438 L 46.2121 76.5531 L 45.812 76.6304 L 45.41188 76.7082 L 45.01176 76.78589 L 44.61165 76.86407 L 44.21153 76.94084 L 43.81142 77.01813 L 43.4113 77.09465 L 43.01118 77.17232 L 42.61108 77.24922 L 42.21097 77.32599 L 41.81085 77.40202 L 41.41074 77.47853 L 41.01062 77.55557 L 40.6105 77.63121 L 40.21037 77.70737 L 39.81027 77.78276 L 39.41016 77.8593 L 39.01004 77.93507 L 38.60992 78.01074 L 38.20981 78.08565 L 37.8097 78.1617 L 37.40958 78.237 L 37.00946 78.31155 L 36.60936 78.38663 L 36.20924 78.46219 L 35.80913 78.53639 L 35.40901 78.61111 L 35.0089 78.68509 L 34.60878 78.75957 L 34.20866 78.83455 L 33.80856 78.9088 L 33.40845 78.98233 L 33.00833 79.05635 L 32.60822 79.13084 L 32.2081 79.20404 L 31.80798 79.27773 L 31.40787 79.3507 L 31.00775 79.42535 L 30.60765 79.4981 L 30.20753 79.57137 L 29.80742 79.64388 L 29.4073 79.7169 L 29.00719 79.79042 L 28.60707 79.86322 L 28.20695 79.9353 L 27.80685 80.00731 Z " fill="#bfbfbf"/>
<path transform="matrix(1,0,0,-1,34.481,172.565)" d="M 27.80685 80.00731 L 28.20695 79.9353 L 28.60707 79.86322 L 29.00719 79.79042 L 29.4073 79.7169 L 29.80742 79.64388 L 30.20753 79.57137 L 30.60765 79.4981 L 31.00775 79.42535 L 31.40787 79.3507 L 31.80798 79.27773 L 32.2081 79.20404 L 32.60822 79.13084 L 33.00833 79.05635 L 33.40845 78.98233 L 33.80856 78.9088 L 34.20866 78.83455 L 34.60878 78.75957 L 35.0089 78.68509 L 35.40901 78.61111 L 35.80913 78.53639 L 36.20924 78.46219 L 36.60936 78.38663 L 37.00946 78.31155 L 37.40958 78.237 L 37.8097 78.1617 L 38.20981 78.08565 L 38.60992 78.01074 L 39.01004 77.93507 L 39.41016 77.8593 L 39.81027 77.78276 L 40.21037 77.70737 L 40.6105 77.63121 L 41.01062 77.55557 L 41.41074 77.47853 L 41.81085 77.40202 L 42.21097 77.32599 L 42.61108 77.24922 L 43.01118 77.17232 L 43.4113 77.09465 L 43.81142 77.01813 L 44.21153 76.94084 L 44.61165 76.86407 L 45.01176 76.78589 L 45.41188 76.7082 L 45.812 76.6304 L 46.2121 76.5531 L 46.61221 76.47438 L 47.01233 76.39618 L 47.41245 76.31848 L 47.81256 76.24 L 48.21268 76.16075 L 48.6128 76.08264 L 49.0129 76.00375 L 49.41301 75.92538 L 49.81313 75.84624 L 50.21324 75.76627 L 50.61336 75.6875 L 51.01347 75.60791 L 51.41359 75.5282 L 51.8137 75.44766 L 52.2138 75.36833 L 52.61392 75.2882 L 53.01404 75.20854 L 53.41415 75.12744 L 53.81427 75.04686 L 54.21439 74.96678 L 54.6145 74.88591 L 55.0146 74.80423 L 55.41472 74.72304 L 55.81483 74.6424 L 56.21495 74.56091 L 56.61507 74.47995 L 57.01518 74.39749 L 57.4153 74.31555 L 57.81541 74.23416 L 58.21552 74.15192 L 58.61563 74.06882 L 59.01575 73.98627 L 59.41586 73.90424 L 59.81598 73.82205 L 60.2161 73.73764 L 60.61621 73.65514 L 61.01631 73.57178 L 61.41643 73.48895 L 61.81654 73.40529 L 62.21666 73.32074 L 62.61678 73.23743 L 63.01689 73.15324 L 63.417 73.0689 L 63.81712 72.98439 L 64.21722 72.8997 L 64.61734 72.81485 L 65.01746 72.73053 L 65.41757 72.64464 L 65.81769 72.55928 L 66.2178 72.47444 L 66.61792 72.38872 L 67.01802 72.30211 L 67.41814 72.21603 L 101.70383 114.6583 L 101.3691 114.88394 L 101.03436 115.10936 L 100.69963 115.3344 L 100.36488 115.55788 L 100.03015 115.78192 L 99.69542 116.00458 L 99.36067 116.2266 L 99.02594 116.44849 L 98.69121 116.67014 L 98.35646 116.89047 L 98.02173 117.11029 L 97.687 117.33025 L 97.35225 117.54912 L 97.01752 117.7674 L 96.68279 117.98528 L 96.34804 118.2027 L 96.0133 118.4189 L 95.67857 118.63554 L 95.34384 118.85135 L 95.0091 119.06625 L 94.67436 119.2809 L 94.33963 119.49518 L 94.00488 119.70882 L 93.67015 119.92163 L 93.33542 120.13406 L 93.00067 120.34657 L 92.66594 120.55823 L 92.33119 120.76944 L 91.99644 120.97986 L 91.66171 121.19037 L 91.32698 121.39964 L 90.99223 121.60861 L 90.6575 121.81743 L 90.32277 122.02594 L 89.98804 122.23344 L 89.65329 122.44034 L 89.31856 122.64723 L 88.98383 122.85335 L 88.64908 123.05956 L 88.31435 123.26498 L 87.97961 123.46974 L 87.64487 123.67401 L 87.31013 123.87845 L 86.9754 124.08203 L 86.64066 124.28502 L 86.30592 124.48746 L 85.97119 124.69003 L 85.63644 124.8914 L 85.30171 125.09314 L 84.96698 125.29427 L 84.63225 125.49495 L 84.2975 125.69453 L 83.96277 125.89458 L 83.62804 126.09358 L 83.29329 126.29317 L 82.95856 126.49136 L 82.62383 126.68944 L 82.28908 126.88695 L 81.95435 127.08455 L 81.61961 127.28084 L 81.28487 127.47728 L 80.95013 127.67348 L 80.6154 127.86885 L 80.28065 128.06414 L 79.94592 128.25934 L 79.61119 128.45357 L 79.27646 128.64739 L 78.94171 128.84145 L 78.60698 129.0349 L 78.27225 129.22765 L 77.9375 129.41986 L 77.60277 129.61246 L 77.26804 129.80367 L 76.93329 129.99559 L 76.59856 130.1867 L 76.26382 130.37717 L 75.92908 130.56723 L 75.59435 130.75759 L 75.25961 130.94736 L 74.92487 131.13636 L 74.59012 131.32509 L 74.25539 131.514 L 73.92065 131.70223 L 73.5859 131.89046 L 73.25117 132.07736 L 72.91644 132.26488 L 72.5817 132.45149 L 72.24696 132.63771 L 71.91223 132.82393 L 71.57748 133.00977 L 71.24275 133.1953 L 70.90802 133.38013 L 70.57327 133.56505 L 70.23854 133.74982 L 69.90381 133.93379 L 69.56906 134.11757 L 69.23433 134.30086 L 68.8996 134.48378 L 68.56487 134.66699 Z " fill="#bfbfbf"/>
<path transform="matrix(1,0,0,-1,34.481,172.565)" d="M 67.42212 69.66008 L 67.7684 70.11464 L 68.11469 70.56921 L 68.46098 71.0238 L 68.80727 71.4783 L 69.15355 71.93288 L 69.49983 72.38745 L 69.84612 72.84203 L 70.19241 73.2966 L 70.5387 73.7511 L 70.88498 74.20569 L 71.23126 74.66026 L 71.57755 75.11484 L 71.92383 75.56941 L 72.27013 76.02391 L 72.61641 76.47849 L 72.96269 76.93307 L 73.30898 77.38765 L 73.65526 77.84222 L 74.00156 78.29674 L 74.34784 78.75128 L 74.69412 79.20587 L 75.0404 79.66046 L 75.38669 80.11504 L 75.73299 80.56953 L 76.07927 81.02411 L 76.42555 81.47867 L 76.77184 81.93326 L 77.11812 82.38785 L 77.46442 82.84233 L 77.8107 83.29692 L 78.15698 83.7515 L 78.50327 84.20605 L 78.84955 84.66064 L 79.19583 85.11514 L 79.54213 85.56972 L 79.88841 86.0243 L 80.2347 86.47888 L 80.58098 86.93344 L 80.92726 87.38795 L 81.27356 87.84253 L 81.61984 88.2971 L 81.96613 88.7517 L 82.31241 89.20627 L 82.65869 89.66078 L 83.00499 90.11534 L 83.35127 90.56992 L 83.69757 91.0245 L 84.04385 91.47908 L 84.39014 91.93358 L 84.73643 92.38815 L 85.08272 92.84271 L 85.429 93.2973 L 85.77528 93.75189 L 86.12157 94.20638 L 86.46785 94.66096 L 86.81415 95.11554 L 87.16043 95.57011 L 87.50671 96.02469 L 87.853 96.4792 L 88.19928 96.93376 L 88.54558 97.38835 L 88.89186 97.84293 L 89.23814 98.29749 L 89.58443 98.752 L 89.93071 99.20657 L 90.27701 99.66115 L 90.62329 100.11574 L 90.96957 100.57031 L 91.31586 101.02481 L 91.66214 101.47939 L 92.00844 101.93396 L 92.35472 102.38853 L 92.701 102.84312 L 93.04729 103.29762 L 93.39357 103.75218 L 93.73985 104.20677 L 94.08615 104.66135 L 94.43243 105.11592 L 94.77872 105.57042 L 95.125 106.02501 L 95.47128 106.47957 L 95.81758 106.93416 L 96.16386 107.38873 L 96.51015 107.84323 L 96.85643 108.2978 L 97.20271 108.7524 L 97.54901 109.20695 L 97.8953 109.66154 L 98.24158 110.11604 L 98.58786 110.57062 L 98.93414 111.02519 L 99.28044 111.47978 L 99.62672 111.93434 L 99.97302 112.38885 L 100.3193 112.84343 L 100.66559 113.298 L 101.01187 113.75258 L 101.35817 114.20715 L 101.70445 114.66165 L 101.70445 49.64822 L 101.35817 49.19373 L 101.01187 48.73915 L 100.66559 48.28458 L 100.3193 47.82999 L 99.97302 47.37543 L 99.62672 46.92091 L 99.28044 46.46634 L 98.93414 46.01176 L 98.58786 45.55719 L 98.24158 45.1026 L 97.8953 44.64812 L 97.54901 44.19353 L 97.20271 43.73895 L 96.85643 43.28438 L 96.51015 42.8298 L 96.16386 42.37529 L 95.81758 41.92073 L 95.47128 41.46614 L 95.125 41.01157 L 94.77872 40.55699 L 94.43243 40.1025 L 94.08615 39.6479 L 93.73985 39.19334 L 93.39357 38.73877 L 93.04729 38.28418 L 92.701 37.8297 L 92.35472 37.3751 L 92.00844 36.92052 L 91.66214 36.46596 L 91.31586 36.01138 L 90.96957 35.55687 L 90.62329 35.10231 L 90.27701 34.64772 L 89.93071 34.19313 L 89.58443 33.73857 L 89.23814 33.28406 L 88.89186 32.82948 L 88.54558 32.37491 L 88.19928 31.92033 L 87.853 31.46576 L 87.50671 31.01125 L 87.16043 30.55669 L 86.81415 30.1021 L 86.46785 29.64752 L 86.12157 29.19295 L 85.77528 28.73845 L 85.429 28.28386 L 85.08272 27.82928 L 84.73643 27.37473 L 84.39014 26.92014 L 84.04385 26.46565 L 83.69757 26.01106 L 83.35127 25.55647 L 83.00499 25.10191 L 82.65869 24.64734 L 82.31241 24.19283 L 81.96613 23.73827 L 81.61984 23.28368 L 81.27356 22.82909 L 80.92726 22.37453 L 80.58098 21.92001 L 80.2347 21.46544 L 79.88841 21.01088 L 79.54213 20.55629 L 79.19583 20.1017 L 78.84955 19.64722 L 78.50327 19.19263 L 78.15698 18.73805 L 77.8107 18.2835 L 77.46442 17.8289 L 77.11812 17.3744 L 76.77184 16.91983 L 76.42555 16.46524 L 76.07927 16.01068 L 75.73299 15.5561 L 75.38669 15.10161 L 75.0404 14.64702 L 74.69412 14.19244 L 74.34784 13.73787 L 74.00156 13.2833 L 73.65526 12.8288 L 73.30898 12.37422 L 72.96269 11.91963 L 72.61641 11.46506 L 72.27013 11.01048 L 71.92383 10.55597 L 71.57755 10.10141 L 71.23126 9.64684 L 70.88498 9.19225 L 70.5387 8.73767 L 70.19241 8.28317 L 69.84612 7.82858 L 69.49983 7.37402 L 69.15355 6.91943 L 68.80727 6.46486 L 68.46098 6.01035 L 68.11469 5.55579 L 67.7684 5.1012 L 67.42212 4.64662 Z " fill="#bfbfbf"/>
<path transform="matrix(1,0,0,-1,34.481,172.565)" stroke-width="1.19553" stroke-linecap="butt" stroke-miterlimit="10" stroke-linejoin="miter" fill="none" stroke="#800000" d="M -13.33205 -2.40332 L -12.1433 -2.29189 L -10.95454 -2.18011 L -9.76578 -2.06795 L -8.57701 -1.9554 L -7.38824 -1.84242 L -6.19948 -1.7291 L -5.01071 -1.61537 L -3.82195 -1.50122 L -2.63321 -1.38669 L -1.44444 -1.27174 L -.25568 -1.15636 L .93307 -1.0406 L 2.12184 -.92438 L 3.31061 -.80775 L 4.49937 -.69067 L 5.68811 -.57318 L 6.87688 -.45523 L 8.06564 -.33682 L 9.25441 -.21799 L 10.44318 -.09866 L 11.63194 .02109 L 12.82071 .14133 L 14.00945 .26204 L 15.19821 .38324 L 16.38698 .50491 L 17.57574 .62709 L 18.76451 .74976 L 19.95328 .87291 L 21.14204 .9966 L 22.3308 1.1208 L 23.51955 1.24551 L 24.70831 1.37077 L 25.89708 1.49655 L 27.08585 1.62288 L 28.27461 1.74977 L 29.46338 1.8772 L 30.65213 2.0052 L 31.8409 2.13379 L 33.02966 2.26295 L 34.21841 2.3927 L 35.40718 2.52304 L 36.59595 2.65399 L 37.78471 2.78554 L 38.97346 2.91772 L 40.16223 3.05052 L 41.351 3.184 L 42.53975 3.3181 L 43.72852 3.45287 L 44.91728 3.58829 L 46.10605 3.72438 L 47.2948 3.8612 L 48.48357 3.99869 L 49.67233 4.1369 L 50.86108 4.27582 L 52.04985 4.4155 L 53.23862 4.55592 L 54.42737 4.69707 L 55.61612 4.839 L 56.80487 4.98172 L 57.99364 5.12521 L 59.1824 5.26956 L 60.37115 5.41469 L 61.55992 5.56068 L 62.74867 5.7075 L 63.93742 5.85521 L 65.12619 6.00377 L 66.31494 6.15324 L 67.50371 6.30365 L 68.69246 6.45497 L 69.88123 6.60722 L 71.06999 6.76047 L 72.25873 6.91469 L 73.4475 7.06993 L 74.63625 7.22617 L 75.82501 7.38347 L 77.01378 7.54184 L 78.20253 7.70128 L 79.3913 7.86185 L 80.58003 8.02354 L 81.7688 8.18642 L 82.95757 8.35045 L 84.14632 8.51572 L 85.33508 8.68219 L 86.52383 8.84996 L 87.7126 9.019 L 88.90137 9.18939 L 90.0901 9.36113 L 91.27887 9.53423 L 92.46762 9.70879 L 93.65639 9.88481 L 94.84515 10.0623 L 96.0339 10.24136 L 97.22267 10.42198 L 98.4114 10.60422 L 99.60017 10.78815 L 100.78894 10.97377 L 101.97769 11.16115 L 103.16646 11.35033 L 104.35521 11.54138 L 105.54398 11.73434 L 106.73273 11.92932 L 107.92148 12.1263 L 109.11024 12.3254 L 110.299 12.52669 L 111.48776 12.73022 L 112.67653 12.93607 L 113.86528 13.14432 L 115.05403 13.35509 L 116.24278 13.56842 L 117.43155 13.78445 L 118.62032 14.00327 L 119.80907 14.22499 L 120.99783 14.4497 L 122.18658 14.67758 L 123.37534 14.90872 L 124.5641 15.1433 L 125.75285 15.38121 L 126.94162 15.62312 L 128.13037 15.86897 L 129.31914 16.11897 L 130.5079 16.37329 L 131.69664 16.6322 L 132.8854 16.89595 L 134.07416 17.16484 L 135.26293 17.43913 L 136.45169 17.71922 L 137.64044 18.00548 L 138.82921 18.2983 L 140.01795 18.59818 L 141.20671 18.90565 L 142.39548 19.22134 L 143.58423 19.54591 L 144.773 19.8802 L 145.96175 20.2251 L 147.15052 20.5817 L 148.33927 20.95126 L 149.52802 21.33534 L 150.71678 21.7358 L 151.90554 22.1549 L 153.0943 22.59555 L 154.28307 23.0614 L 155.47182 23.55742 L 156.66057 24.09032 L 157.84932 24.66983 L 159.03809 25.3108 L 160.22686 26.03839 L 161.4156 26.90132 L 162.60437 28.02585 L 163.79312 30.67468 "/>
<path transform="matrix(1,0,0,-1,34.481,172.565)" stroke-width="1.19553" stroke-linecap="butt" stroke-dasharray="2.98883,2.98883" stroke-miterlimit="10" stroke-linejoin="miter" fill="none" stroke="#800000" d="M 36.18701 58.87521 L 37.04343 58.78064 L 37.89984 58.68575 L 38.75627 58.59055 L 39.61269 58.49498 L 40.4691 58.39914 L 41.32552 58.30292 L 42.18195 58.2064 L 43.03838 58.10953 L 43.89479 58.01231 L 44.7512 57.91472 L 45.60764 57.81683 L 46.46405 57.71855 L 47.32048 57.61992 L 48.1769 57.52092 L 49.03333 57.42152 L 49.88974 57.32181 L 50.74615 57.2217 L 51.60255 57.1212 L 52.45898 57.02034 L 53.3154 56.91907 L 54.17181 56.8174 L 55.02823 56.71535 L 55.88464 56.6129 L 56.74106 56.51004 L 57.59747 56.40677 L 58.45389 56.30304 L 59.31032 56.19894 L 60.16673 56.09439 L 61.02313 55.98941 L 61.87955 55.88402 L 62.73598 55.77814 L 63.59239 55.67183 L 64.4488 55.56506 L 65.3052 55.45782 L 66.16164 55.35014 L 67.01805 55.24197 L 67.87447 55.13333 L 68.73088 55.02419 L 69.5873 54.91457 L 70.44371 54.80443 L 71.30013 54.69382 L 72.15656 54.58267 L 73.01297 54.47101 L 73.86938 54.3588 L 74.72578 54.24608 L 75.58221 54.1328 L 76.43863 54.01898 L 77.29504 53.90462 L 78.15146 53.78966 L 79.00787 53.67412 L 79.86429 53.55801 L 80.7207 53.44131 L 81.57712 53.324 L 82.43355 53.20607 L 83.28995 53.08754 L 84.14636 52.96835 L 85.00278 52.84854 L 85.8592 52.72807 L 86.71562 52.60692 L 87.57202 52.48512 L 88.42844 52.36263 L 89.28487 52.23944 L 90.14128 52.11554 L 90.9977 51.99089 L 91.85411 51.86554 L 92.71053 51.73944 L 93.56694 51.61256 L 94.42336 51.48491 L 95.27977 51.35646 L 96.1362 51.22722 L 96.9926 51.09717 L 97.84901 50.96626 L 98.70543 50.83452 L 99.56186 50.70187 L 100.41827 50.56837 L 101.27467 50.43396 L 102.13109 50.29863 L 102.98752 50.16232 L 103.84393 50.0251 L 104.70035 49.88687 L 105.55675 49.74763 L 106.41318 49.60735 L 107.26959 49.46605 L 108.126 49.32368 L 108.98242 49.18019 L 109.83885 49.03555 L 110.69525 48.8898 L 111.55167 48.74286 L 112.40808 48.59468 L 113.26451 48.44531 L 114.12093 48.29465 L 114.97733 48.14265 L 115.83374 47.98935 L 116.69017 47.83467 L 117.54659 47.67856 L 118.403 47.52103 L 119.2594 47.36198 L 120.11583 47.2014 L 120.97224 47.03925 L 121.82866 46.87544 L 122.68507 46.70998 L 123.5415 46.54277 L 124.3979 46.37378 L 125.25432 46.20294 L 126.11073 46.03041 L 126.96716 45.8557 L 127.82358 45.67891 L 128.67998 45.50003 L 129.53639 45.31895 L 130.39282 45.13559 L 131.24924 44.94987 L 132.10565 44.76169 L 132.96207 44.57094 L 133.81848 44.37752 L 134.6749 44.18132 L 135.53131 43.98221 L 136.38774 43.78006 L 137.24414 43.57474 L 138.10056 43.36607 L 138.95697 43.15388 L 139.8134 42.93802 L 140.66982 42.71826 L 141.52623 42.4944 L 142.38263 42.26619 L 143.23906 42.03336 L 144.09548 41.79562 L 144.95189 41.55267 L 145.8083 41.30412 L 146.66472 41.0496 L 147.52114 40.7886 L 148.37755 40.52068 L 149.23397 40.24518 L 150.0904 39.96144 L 150.9468 39.66872 L 151.8032 39.36604 L 152.65962 39.05235 L 153.51605 38.72636 L 154.37247 38.38647 L 155.22887 38.03075 L 156.08528 37.65675 L 156.94171 37.26134 L 157.79813 36.84035 L 158.65454 36.38803 L 159.51096 35.89618 L 160.36737 35.35208 L 161.22379 34.73462 L 162.0802 34.00223 L 162.93662 33.0479 L 163.79305 30.81331 "/>
<path transform="matrix(1,0,0,-1,34.481,172.565)" stroke-width="1.19553" stroke-linecap="butt" stroke-miterlimit="10" stroke-linejoin="miter" fill="none" stroke="#000080" d="M 135.22516 87.61484 L 112.37021 61.02295 L 112.37021 12.8348 "/>
<path transform="matrix(1,0,0,-1,34.481,172.565)" stroke-width="1.19553" stroke-linecap="butt" stroke-miterlimit="10" stroke-linejoin="miter" fill="none" stroke="#000080" d="M 101.70456 114.51413 L 68.56487 71.93637 L 68.56487 6.1484 "/>
<path transform="matrix(1,0,0,-1,34.481,172.565)" stroke-width="1.19553" stroke-linecap="butt" stroke-miterlimit="10" stroke-linejoin="miter" fill="none" stroke="#000080" d="M 67.42212 135.265 L 27.80685 79.92932 L 27.80685 1.5371 "/>
<path transform="matrix(1,0,0,-1,34.481,172.565)" stroke-width="1.19553" stroke-linecap="butt" stroke-miterlimit="10" stroke-linejoin="miter" fill="none" stroke="#000080" d="M 35.42517 151.40459 L -12.57022 86.84628 L -12.57022 -1.5371 "/>
<path transform="matrix(1,0,0,-1,34.481,172.565)" stroke-width="1.19553" stroke-linecap="butt" stroke-dasharray="2.98883,2.98883" stroke-miterlimit="10" stroke-linejoin="miter" fill="none" stroke="#000080" d="M 112.37021 12.8348 L 135.22516 43.57684 L 135.22516 87.61484 "/>
<path transform="matrix(1,0,0,-1,34.481,172.565)" stroke-width="1.19553" stroke-linecap="butt" stroke-dasharray="2.98883,2.98883" stroke-miterlimit="10" stroke-linejoin="miter" fill="none" stroke="#000080" d="M 68.56487 6.1484 L 101.70456 49.64839 L 101.70456 114.51413 "/>
<path transform="matrix(1,0,0,-1,34.481,172.565)" stroke-width="1.19553" stroke-linecap="butt" stroke-dasharray="2.98883,2.98883" stroke-miterlimit="10" stroke-linejoin="miter" fill="none" stroke="#000080" d="M 27.80685 1.5371 L 67.42212 55.02824 L 67.42212 135.265 "/>
<path transform="matrix(1,0,0,-1,34.481,172.565)" stroke-width="1.19553" stroke-linecap="butt" stroke-dasharray="2.98883,2.98883" stroke-miterlimit="10" stroke-linejoin="miter" fill="none" stroke="#000080" d="M -12.57022 -1.5371 L 35.42517 63.0212 L 35.42517 151.40459 "/>
<symbol id="font_0_1">
<path d="M .305 .31300003 C .311 .33900003 .334 .43100003 .404 .43100003 C .409 .43100003 .433 .43100003 .454 .418 C .426 .41300003 .40600003 .388 .40600003 .36400003 C .40600003 .34800003 .417 .32900004 .444 .32900004 C .46600003 .32900004 .498 .34700004 .498 .38700003 C .498 .43900005 .439 .45300005 .405 .45300005 C .347 .45300005 .312 .40000005 .3 .37700004 C .275 .44300003 .221 .45300005 .19200002 .45300005 C .08800001 .45300005 .031000002 .32400004 .031000002 .29900003 C .031000002 .28900004 .041 .28900004 .043000007 .28900004 C .051000008 .28900004 .054000006 .291 .056 .3 C .09 .40600003 .156 .43100003 .19000001 .43100003 C .209 .43100003 .244 .42200003 .244 .36400003 C .244 .33300004 .22700002 .26600004 .19000001 .126 C .17400001 .064 .13900002 .022000002 .095000009 .022000002 C .08900001 .022000002 .06600001 .022000002 .045 .035 C .07000001 .040000004 .09200001 .061 .09200001 .089 C .09200001 .116000007 .07000001 .124000009 .055000009 .124000009 C .025 .124000009 0 .098000008 0 .06600001 C 0 .020000002 .050000006 0 .094000007 0 C .16000001 0 .19600001 .07000001 .19900002 .076000008 C .21100001 .039 .24700003 0 .307 0 C .41 0 .467 .12900001 .467 .15400002 C .467 .16400002 .458 .16400002 .455 .16400002 C .446 .16400002 .444 .16000001 .442 .15300001 C .409 .046 .341 .022000002 .30900003 .022000002 C .27 .022000002 .254 .054 .254 .08800001 C .254 .11000001 .26 .13200002 .271 .17600002 L .305 .31300003 Z "/>
</symbol>
<use xlink:href="#font_0_1" transform="matrix(9.9626,0,0,-9.9626,137.54792,176.0096)" fill="#800000"/>
<symbol id="font_1_5">
<path d="M .63100007 .19400002 C .646 .19400002 .665 .19400002 .665 .214 C .665 .23400001 .646 .23400001 .632 .23400001 L .033 .23400001 C .019000002 .23400001 0 .23400001 0 .214 C 0 .19400002 .019000002 .19400002 .034 .19400002 L .63100007 .19400002 M .632 0 C .646 0 .665 0 .665 .02000001 C .665 .040000008 .646 .040000008 .63100007 .040000008 L .034 .040000008 C .019000002 .040000008 0 .040000008 0 .02000001 C 0 0 .019000002 0 .033 0 L .632 0 Z "/>
</symbol>
<symbol id="font_1_4">
<path d="M .266 .165 L .266 .078 C .266 .042000005 .26400004 .031000002 .19000001 .031000002 L .16900002 .031000002 L .16900002 0 C .21000001 .003 .26200003 .003 .30400003 .003 C .34600003 .003 .39900003 .003 .44000004 0 L .44000004 .031000002 L .41900004 .031000002 C .34500004 .031000002 .34300003 .042000005 .34300003 .078 L .34300003 .165 L .44300003 .165 L .44300003 .19600001 L .34300003 .19600001 L .34300003 .651 C .34300003 .671 .34300003 .67700007 .32700003 .67700007 C .31800003 .67700007 .31500004 .67700007 .307 .665 L 0 .19600001 L 0 .165 L .266 .165 M .272 .19600001 L .028 .19600001 L .272 .569 L .272 .19600001 Z "/>
</symbol>
<use xlink:href="#font_1_5" transform="matrix(9.9626,0,0,-9.9626,146.27791,174.57498)" fill="#800000"/>
<use xlink:href="#font_1_4" transform="matrix(9.9626,0,0,-9.9626,156.51946,175.90001)" fill="#800000"/>
<symbol id="font_2_1">
<path d="M .57600006 0 C .59300008 0 .611 0 .611 .019999996 C .611 .040000008 .59300008 .040000008 .57600006 .040000008 L .035000005 .040000008 C .018 .040000008 0 .040000008 0 .019999996 C 0 0 .018 0 .035000005 0 L .57600006 0 Z "/>
</symbol>
<use xlink:href="#font_2_1" transform="matrix(9.9626,0,0,-9.9626,164.25789,173.60861)" fill="#800000"/>
<symbol id="font_0_2">
<path d="M .45700003 .586 C .461 .6 .461 .602 .461 .609 C .461 .62700006 .447 .63600006 .432 .63600006 C .42200003 .63600006 .40600003 .63 .397 .615 C .395 .61 .387 .579 .38300003 .561 C .37600003 .535 .36900003 .508 .363 .48100005 L .318 .301 C .314 .286 .271 .21600002 .20500002 .21600002 C .15400002 .21600002 .143 .26000003 .143 .29700003 C .143 .34300003 .16000001 .40500004 .194 .49300004 C .21000001 .53400006 .21400002 .545 .21400002 .56500008 C .21400002 .61 .18200001 .6470001 .13200002 .6470001 C .037 .6470001 0 .50200006 0 .49300004 C 0 .48300005 .01 .48300005 .012 .48300005 C .022000002 .48300005 .023 .485 .028000003 .50100007 C .055000009 .595 .095000009 .625 .12900001 .625 C .13700001 .625 .15400002 .625 .15400002 .59300008 C .15400002 .568 .14400001 .54200008 .13700001 .523 C .097 .41700004 .079 .36 .079 .31300003 C .079 .224 .142 .194 .201 .194 C .24000003 .194 .274 .21100001 .30200003 .23900002 C .289 .187 .277 .13800001 .237 .08500001 C .21100001 .051 .17300001 .022 .127 .022 C .113000009 .022 .068 .025000006 .051000008 .06400001 C .067 .06400001 .080000009 .06400001 .094000007 .076000008 C .104 .08500001 .11400001 .098000008 .11400001 .117000009 C .11400001 .148 .087000008 .15200001 .07700001 .15200001 C .054000006 .15200001 .021 .136 .021 .087000008 C .021 .037 .065000008 0 .127 0 C .23 0 .333 .091000009 .361 .20400001 L .45700003 .586 Z "/>
</symbol>
<use xlink:href="#font_0_2" transform="matrix(9.9626,0,0,-9.9626,173.6829,177.94234)" fill="#800000"/>
<symbol id="font_3_1">
<path d="M .442 .18200001 L .40800003 .18200001 C .40500004 .16000001 .39500005 .101 .38200004 .091000009 C .374 .085 .29700003 .085 .28300003 .085 L .099 .085 C .20400003 .178 .23900002 .20600002 .29900003 .25300003 C .37300004 .312 .442 .374 .442 .469 C .442 .59000006 .33600004 .66400006 .20800004 .66400006 C .084 .66400006 0 .577 0 .485 C 0 .43400003 .043000007 .42900003 .053000004 .42900003 C .077 .42900003 .10600001 .446 .10600001 .48200003 C .10600001 .5 .099 .535 .047000007 .535 C .078 .606 .146 .628 .19300002 .628 C .293 .628 .34500004 .55 .34500004 .469 C .34500004 .38200004 .28300003 .31300003 .25100003 .277 L .010000005 .039 C 0 .030000002 0 .028 0 0 L .41200004 0 L .442 .18200001 Z "/>
</symbol>
<use xlink:href="#font_3_1" transform="matrix(6.9738,0,0,-6.9738,179.07535,171.78702)" fill="#800000"/>
<path transform="matrix(1,0,0,-1,34.481,172.565)" stroke-width="1.19553" stroke-linecap="butt" stroke-miterlimit="10" stroke-linejoin="miter" fill="none" stroke="#000000" d="M 35.42517 151.40195 L 36.72182 150.79143 L 38.01845 150.1772 L 39.3151 149.5599 L 40.61172 148.93982 L 41.90837 148.31607 L 43.205 147.68895 L 44.50163 147.05841 L 45.79828 146.42452 L 47.09491 145.78722 L 48.39156 145.14633 L 49.68819 144.50167 L 50.98483 143.85379 L 52.28145 143.20175 L 53.5781 142.54587 L 54.87473 141.88623 L 56.17136 141.22234 L 57.468 140.55533 L 58.76463 139.88329 L 60.06126 139.20798 L 61.3579 138.52765 L 62.65454 137.84372 L 63.95117 137.15464 L 65.24782 136.46134 L 66.54443 135.76348 L 67.84106 135.06125 L 69.13771 134.35388 L 70.43434 133.64167 L 71.73099 132.92453 L 73.02762 132.20203 L 74.32425 131.47528 L 75.62088 130.74224 L 76.91751 130.0048 L 78.21416 129.26085 L 79.51079 128.51158 L 80.80742 127.75717 L 82.10405 126.99585 L 83.4007 126.22884 L 84.69733 125.45583 L 85.99397 124.67621 L 87.2906 123.89012 L 88.58722 123.09767 L 89.88387 122.298 L 91.1805 121.49126 L 92.47714 120.6769 L 93.77377 119.85616 L 95.07042 119.02711 L 96.36703 118.19017 L 97.66368 117.34523 L 98.96031 116.49182 L 100.25694 115.63074 L 101.55359 114.75966 L 102.8502 113.87976 L 104.14685 112.99086 L 105.44348 112.0918 L 106.74013 111.18283 L 108.03676 110.26341 L 109.33339 109.33322 L 110.63002 108.39223 L 111.92665 107.4406 L 113.2233 106.47533 L 114.51993 105.4988 L 115.81657 104.50812 L 117.11319 103.50522 L 118.40984 102.48701 L 119.70647 101.45459 L 121.0031 100.40688 L 122.29974 99.34357 L 123.59637 98.2631 L 124.893 97.16504 L 126.18964 96.04913 L 127.48628 94.91328 L 128.78292 93.75699 L 130.07955 92.57913 L 131.37618 91.37834 L 132.6728 90.15332 L 133.96945 88.90253 L 135.26609 87.62416 L 136.56273 86.31642 L 137.85936 84.97714 L 139.15599 83.604 L 140.45262 82.19423 L 141.74925 80.74472 L 143.0459 79.25174 L 144.34253 77.71158 L 145.63916 76.1191 L 146.93579 74.46854 L 148.23244 72.75339 L 149.52907 70.96501 L 150.8257 69.09343 L 152.12235 67.1256 L 153.41896 65.04507 L 154.7156 62.82994 L 156.01224 60.4502 L 157.30889 57.86241 L 158.60552 54.99977 L 159.90216 51.75102 L 161.19878 47.8978 L 162.4954 42.87718 L 163.79206 31.19409 "/>
<path transform="matrix(1,0,0,-1,34.481,172.565)" stroke-width="1.19553" stroke-linecap="butt" stroke-miterlimit="10" stroke-linejoin="miter" fill="none" stroke="#000000" d="M -12.57022 86.8468 L -10.7888 86.5634 L -9.00737 86.27803 L -7.22594 85.99065 L -5.4445 85.70177 L -3.66307 85.4119 L -1.88165 85.12103 L -.10022 84.82751 L 1.6812 84.53238 L 3.46262 84.23618 L 5.24405 83.93887 L 7.02548 83.63878 L 8.80692 83.33699 L 10.58835 83.03401 L 12.36978 82.72871 L 14.15121 82.42274 L 15.93263 82.11438 L 17.71405 81.803 L 19.4955 81.49086 L 21.27693 81.17737 L 23.05835 80.86076 L 24.83978 80.54272 L 26.62122 80.22205 L 28.40263 79.89928 L 30.18407 79.57558 L 31.9655 79.24911 L 33.74692 78.91983 L 35.52835 78.58829 L 37.3098 78.25566 L 39.09123 77.92006 L 40.87265 77.58144 L 42.65408 77.24033 L 44.43552 76.89735 L 46.21693 76.55246 L 47.99837 76.20363 L 49.7798 75.85213 L 51.56123 75.4985 L 53.34265 75.14275 L 55.12408 74.78276 L 56.90552 74.4198 L 58.68694 74.05452 L 60.46837 73.68541 L 62.2498 73.3145 L 64.03122 72.93893 L 65.81265 72.56068 L 67.59409 72.17827 L 69.37552 71.79375 L 71.15694 71.40413 L 72.93837 71.01147 L 74.7198 70.6142 L 76.50122 70.21297 L 78.28265 69.80908 L 80.06409 69.39948 L 81.84552 68.98624 L 83.62694 68.5677 L 85.40837 68.14609 L 87.1898 67.71884 L 88.97122 67.28581 L 90.75266 66.84758 L 92.53409 66.40562 L 94.31552 65.95728 L 96.09694 65.5023 L 97.87837 65.04129 L 99.6598 64.57486 L 101.44122 64.10281 L 103.22266 63.6222 L 105.00409 63.13443 L 106.7855 62.64014 L 108.56694 62.13902 L 110.34837 61.62784 L 112.1298 61.10806 L 113.91122 60.58025 L 115.69266 60.04189 L 117.47409 59.4955 L 119.25551 58.93643 L 121.03694 58.36714 L 122.81837 57.78477 L 124.5998 57.19182 L 126.38121 56.58296 L 128.16265 55.9601 L 129.94408 55.32173 L 131.7255 54.66585 L 133.50693 53.99185 L 135.28836 53.29759 L 137.06978 52.58168 L 138.85121 51.84122 L 140.63265 51.07365 L 142.41408 50.27611 L 144.1955 49.44473 L 145.97693 48.57448 L 147.75836 47.65933 L 149.53978 46.69196 L 151.32122 45.66199 L 153.10265 44.55566 L 154.88408 43.3524 L 156.6655 42.02151 L 158.44693 40.51065 L 160.22837 38.71924 L 162.00978 36.385 L 163.79122 30.95877 "/>
<path transform="matrix(1,0,0,-1,34.481,172.565)" stroke-width="1" stroke-linecap="butt" stroke-miterlimit="10" stroke-linejoin="miter" fill="none" stroke="#000000" d="M -34.28242 -30.74203 L 55.94666 90.62448 "/>
<path transform="matrix(.59761,-.80383,-.80383,-.59761,90.42764,81.94052)" d="M 1.99252 0 L -1.19551 1.59401 L 0 0 L -1.19551 -1.59401 "/>
<use xlink:href="#font_0_2" transform="matrix(9.9626,0,0,-9.9626,95.42692,92.29635)"/>
<path transform="matrix(1,0,0,-1,34.481,172.565)" stroke-width="1" stroke-linecap="butt" stroke-miterlimit="10" stroke-linejoin="miter" fill="none" stroke="#000000" d="M -13.33205 -2.40332 L -12.1433 -2.29189 L -10.95454 -2.18011 L -9.76578 -2.06795 L -8.57701 -1.9554 L -7.38824 -1.84242 L -6.19948 -1.7291 L -5.01071 -1.61537 L -3.82195 -1.50122 L -2.63321 -1.38669 L -1.44444 -1.27174 L -.25568 -1.15636 L .93307 -1.0406 L 2.12184 -.92438 L 3.31061 -.80775 L 4.49937 -.69067 L 5.68811 -.57318 L 6.87688 -.45523 L 8.06564 -.33682 L 9.25441 -.21799 L 10.44318 -.09866 L 11.63194 .02109 L 12.82071 .14133 L 14.00945 .26204 L 15.19821 .38324 L 16.38698 .50491 L 17.57574 .62709 L 18.76451 .74976 L 19.95328 .87291 L 21.14204 .9966 L 22.3308 1.1208 L 23.51955 1.24551 L 24.70831 1.37077 L 25.89708 1.49655 L 27.08585 1.62288 L 28.27461 1.74977 L 29.46338 1.8772 L 30.65213 2.0052 L 31.8409 2.13379 L 33.02966 2.26295 L 34.21841 2.3927 L 35.40718 2.52304 L 36.59595 2.65399 L 37.78471 2.78554 L 38.97346 2.91772 L 40.16223 3.05052 L 41.351 3.184 L 42.53975 3.3181 L 43.72852 3.45287 L 44.91728 3.58829 L 46.10605 3.72438 L 47.2948 3.8612 L 48.48357 3.99869 L 49.67233 4.1369 L 50.86108 4.27582 L 52.04985 4.4155 L 53.23862 4.55592 L 54.42737 4.69707 L 55.61612 4.839 L 56.80487 4.98172 L 57.99364 5.12521 L 59.1824 5.26956 L 60.37115 5.41469 L 61.55992 5.56068 L 62.74867 5.7075 L 63.93742 5.85521 L 65.12619 6.00377 L 66.31494 6.15324 L 67.50371 6.30365 L 68.69246 6.45497 L 69.88123 6.60722 L 71.06999 6.76047 L 72.25873 6.91469 L 73.4475 7.06993 L 74.63625 7.22617 L 75.82501 7.38347 L 77.01378 7.54184 L 78.20253 7.70128 L 79.3913 7.86185 L 80.58003 8.02354 L 81.7688 8.18642 L 82.95757 8.35045 L 84.14632 8.51572 L 85.33508 8.68219 L 86.52383 8.84996 L 87.7126 9.019 L 88.90137 9.18939 L 90.0901 9.36113 L 91.27887 9.53423 L 92.46762 9.70879 L 93.65639 9.88481 L 94.84515 10.0623 L 96.0339 10.24136 L 97.22267 10.42198 L 98.4114 10.60422 L 99.60017 10.78815 L 100.78894 10.97377 L 101.97769 11.16115 L 103.16646 11.35033 L 104.35521 11.54138 L 105.54398 11.73434 L 106.73273 11.92932 L 107.92148 12.1263 L 109.11024 12.3254 L 110.299 12.52669 L 111.48776 12.73022 L 112.67653 12.93607 L 113.86528 13.14432 L 115.05403 13.35509 L 116.24278 13.56842 L 117.43155 13.78445 L 118.62032 14.00327 L 119.80907 14.22499 L 120.99783 14.4497 L 122.18658 14.67758 L 123.37534 14.90872 L 124.5641 15.1433 L 125.75285 15.38121 L 126.94162 15.62312 L 128.13037 15.86897 L 129.31914 16.11897 L 130.5079 16.37329 L 131.69664 16.6322 L 132.8854 16.89595 L 134.07416 17.16484 L 135.26293 17.43913 L 136.45169 17.71922 L 137.64044 18.00548 L 138.82921 18.2983 L 140.01795 18.59818 L 141.20671 18.90565 L 142.39548 19.22134 L 143.58423 19.54591 L 144.773 19.8802 L 145.96175 20.2251 L 147.15052 20.5817 L 148.33927 20.95126 L 149.52802 21.33534 L 150.71678 21.7358 L 151.90554 22.1549 L 153.0943 22.59555 L 154.28307 23.0614 L 155.47182 23.55742 L 156.66057 24.09032 L 157.84932 24.66983 L 159.03809 25.3108 L 160.22686 26.03839 L 161.4156 26.90132 L 162.60437 28.02585 L 163.79312 30.67468 "/>
<path transform="matrix(1,0,0,-1,34.481,172.565)" stroke-width="1" stroke-linecap="butt" stroke-miterlimit="10" stroke-linejoin="miter" fill="none" stroke="#000000" d="M -12.57022 86.8468 L -10.7888 86.5634 L -9.00737 86.27803 L -7.22594 85.99065 L -5.4445 85.70177 L -3.66307 85.4119 L -1.88165 85.12103 L -.10022 84.82751 L 1.6812 84.53238 L 3.46262 84.23618 L 5.24405 83.93887 L 7.02548 83.63878 L 8.80692 83.33699 L 10.58835 83.03401 L 12.36978 82.72871 L 14.15121 82.42274 L 15.93263 82.11438 L 17.71405 81.803 L 19.4955 81.49086 L 21.27693 81.17737 L 23.05835 80.86076 L 24.83978 80.54272 L 26.62122 80.22205 L 28.40263 79.89928 L 30.18407 79.57558 L 31.9655 79.24911 L 33.74692 78.91983 L 35.52835 78.58829 L 37.3098 78.25566 L 39.09123 77.92006 L 40.87265 77.58144 L 42.65408 77.24033 L 44.43552 76.89735 L 46.21693 76.55246 L 47.99837 76.20363 L 49.7798 75.85213 L 51.56123 75.4985 L 53.34265 75.14275 L 55.12408 74.78276 L 56.90552 74.4198 L 58.68694 74.05452 L 60.46837 73.68541 L 62.2498 73.3145 L 64.03122 72.93893 L 65.81265 72.56068 L 67.59409 72.17827 L 69.37552 71.79375 L 71.15694 71.40413 L 72.93837 71.01147 L 74.7198 70.6142 L 76.50122 70.21297 L 78.28265 69.80908 L 80.06409 69.39948 L 81.84552 68.98624 L 83.62694 68.5677 L 85.40837 68.14609 L 87.1898 67.71884 L 88.97122 67.28581 L 90.75266 66.84758 L 92.53409 66.40562 L 94.31552 65.95728 L 96.09694 65.5023 L 97.87837 65.04129 L 99.6598 64.57486 L 101.44122 64.10281 L 103.22266 63.6222 L 105.00409 63.13443 L 106.7855 62.64014 L 108.56694 62.13902 L 110.34837 61.62784 L 112.1298 61.10806 L 113.91122 60.58025 L 115.69266 60.04189 L 117.47409 59.4955 L 119.25551 58.93643 L 121.03694 58.36714 L 122.81837 57.78477 L 124.5998 57.19182 L 126.38121 56.58296 L 128.16265 55.9601 L 129.94408 55.32173 L 131.7255 54.66585 L 133.50693 53.99185 L 135.28836 53.29759 L 137.06978 52.58168 L 138.85121 51.84122 L 140.63265 51.07365 L 142.41408 50.27611 L 144.1955 49.44473 L 145.97693 48.57448 L 147.75836 47.65933 L 149.53978 46.69196 L 151.32122 45.66199 L 153.10265 44.55566 L 154.88408 43.3524 L 156.6655 42.02151 L 158.44693 40.51065 L 160.22837 38.71924 L 162.00978 36.385 L 163.79122 30.95877 "/>
<path transform="matrix(1,0,0,-1,34.481,172.565)" stroke-width="1" stroke-linecap="butt" stroke-miterlimit="10" stroke-linejoin="miter" fill="none" stroke="#000000" d="M -12.57022 86.8468 L -10.7888 86.5634 L -9.00737 86.27803 L -7.22594 85.99065 L -5.4445 85.70177 L -3.66307 85.4119 L -1.88165 85.12103 L -.10022 84.82751 L 1.6812 84.53238 L 3.46262 84.23618 L 5.24405 83.93887 L 7.02548 83.63878 L 8.80692 83.33699 L 10.58835 83.03401 L 12.36978 82.72871 L 14.15121 82.42274 L 15.93263 82.11438 L 17.71405 81.803 L 19.4955 81.49086 L 21.27693 81.17737 L 23.05835 80.86076 L 24.83978 80.54272 L 26.62122 80.22205 L 28.40263 79.89928 L 30.18407 79.57558 L 31.9655 79.24911 L 33.74692 78.91983 L 35.52835 78.58829 L 37.3098 78.25566 L 39.09123 77.92006 L 40.87265 77.58144 L 42.65408 77.24033 L 44.43552 76.89735 L 46.21693 76.55246 L 47.99837 76.20363 L 49.7798 75.85213 L 51.56123 75.4985 L 53.34265 75.14275 L 55.12408 74.78276 L 56.90552 74.4198 L 58.68694 74.05452 L 60.46837 73.68541 L 62.2498 73.3145 L 64.03122 72.93893 L 65.81265 72.56068 L 67.59409 72.17827 L 69.37552 71.79375 L 71.15694 71.40413 L 72.93837 71.01147 L 74.7198 70.6142 L 76.50122 70.21297 L 78.28265 69.80908 L 80.06409 69.39948 L 81.84552 68.98624 L 83.62694 68.5677 L 85.40837 68.14609 L 87.1898 67.71884 L 88.97122 67.28581 L 90.75266 66.84758 L 92.53409 66.40562 L 94.31552 65.95728 L 96.09694 65.5023 L 97.87837 65.04129 L 99.6598 64.57486 L 101.44122 64.10281 L 103.22266 63.6222 L 105.00409 63.13443 L 106.7855 62.64014 L 108.56694 62.13902 L 110.34837 61.62784 L 112.1298 61.10806 L 113.91122 60.58025 L 115.69266 60.04189 L 117.47409 59.4955 L 119.25551 58.93643 L 121.03694 58.36714 L 122.81837 57.78477 L 124.5998 57.19182 L 126.38121 56.58296 L 128.16265 55.9601 L 129.94408 55.32173 L 131.7255 54.66585 L 133.50693 53.99185 L 135.28836 53.29759 L 137.06978 52.58168 L 138.85121 51.84122 L 140.63265 51.07365 L 142.41408 50.27611 L 144.1955 49.44473 L 145.97693 48.57448 L 147.75836 47.65933 L 149.53978 46.69196 L 151.32122 45.66199 L 153.10265 44.55566 L 154.88408 43.3524 L 156.6655 42.02151 L 158.44693 40.51065 L 160.22837 38.71924 L 162.00978 36.385 L 163.79122 30.95877 "/>
<path transform="matrix(1,0,0,-1,34.481,172.565)" stroke-width="1" stroke-linecap="butt" stroke-miterlimit="10" stroke-linejoin="miter" fill="none" stroke="#000000" d="M 35.42517 151.40195 L 36.72182 150.79143 L 38.01845 150.1772 L 39.3151 149.5599 L 40.61172 148.93982 L 41.90837 148.31607 L 43.205 147.68895 L 44.50163 147.05841 L 45.79828 146.42452 L 47.09491 145.78722 L 48.39156 145.14633 L 49.68819 144.50167 L 50.98483 143.85379 L 52.28145 143.20175 L 53.5781 142.54587 L 54.87473 141.88623 L 56.17136 141.22234 L 57.468 140.55533 L 58.76463 139.88329 L 60.06126 139.20798 L 61.3579 138.52765 L 62.65454 137.84372 L 63.95117 137.15464 L 65.24782 136.46134 L 66.54443 135.76348 L 67.84106 135.06125 L 69.13771 134.35388 L 70.43434 133.64167 L 71.73099 132.92453 L 73.02762 132.20203 L 74.32425 131.47528 L 75.62088 130.74224 L 76.91751 130.0048 L 78.21416 129.26085 L 79.51079 128.51158 L 80.80742 127.75717 L 82.10405 126.99585 L 83.4007 126.22884 L 84.69733 125.45583 L 85.99397 124.67621 L 87.2906 123.89012 L 88.58722 123.09767 L 89.88387 122.298 L 91.1805 121.49126 L 92.47714 120.6769 L 93.77377 119.85616 L 95.07042 119.02711 L 96.36703 118.19017 L 97.66368 117.34523 L 98.96031 116.49182 L 100.25694 115.63074 L 101.55359 114.75966 L 102.8502 113.87976 L 104.14685 112.99086 L 105.44348 112.0918 L 106.74013 111.18283 L 108.03676 110.26341 L 109.33339 109.33322 L 110.63002 108.39223 L 111.92665 107.4406 L 113.2233 106.47533 L 114.51993 105.4988 L 115.81657 104.50812 L 117.11319 103.50522 L 118.40984 102.48701 L 119.70647 101.45459 L 121.0031 100.40688 L 122.29974 99.34357 L 123.59637 98.2631 L 124.893 97.16504 L 126.18964 96.04913 L 127.48628 94.91328 L 128.78292 93.75699 L 130.07955 92.57913 L 131.37618 91.37834 L 132.6728 90.15332 L 133.96945 88.90253 L 135.26609 87.62416 L 136.56273 86.31642 L 137.85936 84.97714 L 139.15599 83.604 L 140.45262 82.19423 L 141.74925 80.74472 L 143.0459 79.25174 L 144.34253 77.71158 L 145.63916 76.1191 L 146.93579 74.46854 L 148.23244 72.75339 L 149.52907 70.96501 L 150.8257 69.09343 L 152.12235 67.1256 L 153.41896 65.04507 L 154.7156 62.82994 L 156.01224 60.4502 L 157.30889 57.86241 L 158.60552 54.99977 L 159.90216 51.75102 L 161.19878 47.8978 L 162.4954 42.87718 L 163.79206 31.19409 "/>
<path transform="matrix(1,0,0,-1,34.481,172.565)" stroke-width="1" stroke-linecap="butt" stroke-miterlimit="10" stroke-linejoin="miter" fill="none" stroke="#000000" d="M 27.80685 1.69978 L 28.07272 1.72816 L 28.3386 1.75662 L 28.60446 1.78506 L 28.87035 1.81357 L 29.13622 1.84209 L 29.40208 1.8706 L 29.66795 1.8992 L 29.93382 1.92778 L 30.19969 1.95642 L 30.46556 1.98508 L 30.73145 2.01376 L 30.99731 2.04248 L 31.26318 2.07123 L 31.52905 2.1 L 31.79494 2.12878 L 32.06079 2.15764 L 32.32666 2.1865 L 32.59253 2.2154 L 32.85841 2.24431 L 33.12428 2.27325 L 33.39015 2.30225 L 33.65604 2.33124 L 33.9219 2.36026 L 34.18777 2.38931 L 34.45363 2.41843 L 34.71951 2.44756 L 34.98538 2.47672 L 35.25125 2.50592 L 35.51712 2.53513 L 35.783 2.56436 L 36.04887 2.59363 L 36.31476 2.62296 L 36.58061 2.6523 L 36.84648 2.68166 L 37.11235 2.71106 L 37.37823 2.74048 L 37.6441 2.76994 L 37.90997 2.79945 L 38.17584 2.82895 L 38.44173 2.85852 L 38.7076 2.8881 L 38.97345 2.91772 L 39.23932 2.94737 L 39.5052 2.97704 L 39.77107 3.00676 L 40.03694 3.0365 L 40.30283 3.0663 L 40.5687 3.0961 L 40.83456 3.12593 L 41.10043 3.15582 L 41.3663 3.18571 L 41.63217 3.21567 L 41.89804 3.24562 L 42.16391 3.2756 L 42.4298 3.30566 L 42.69566 3.33574 L 42.96155 3.36581 L 43.2274 3.39597 L 43.49327 3.42613 L 43.75914 3.45633 L 44.02502 3.48657 L 44.2909 3.51685 L 44.55676 3.54715 L 44.82263 3.57747 L 45.08852 3.60785 L 45.35439 3.63826 L 45.62025 3.66869 L 45.88611 3.69916 L 46.152 3.72966 L 46.41786 3.76021 L 46.68373 3.79079 L 46.94962 3.82141 L 47.21548 3.85205 L 47.48135 3.88274 L 47.74722 3.91344 L 48.0131 3.94418 L 48.27896 3.97498 L 48.54483 4.00578 L 48.8107 4.03667 L 49.07658 4.06755 L 49.34245 4.0985 L 49.60832 4.12944 L 49.87419 4.16046 L 50.14006 4.19148 L 50.40591 4.22255 L 50.67178 4.25366 L 50.93765 4.2848 L 51.20352 4.31598 L 51.46939 4.3472 L 51.73526 4.37846 L 52.00113 4.40974 L 52.267 4.44109 L 52.53287 4.47244 L 52.79872 4.50386 L 53.06459 4.53531 L 53.33046 4.56677 L 53.59633 4.5983 L 53.8622 4.62987 L 54.12807 4.66147 L 54.39394 4.69307 L 54.6598 4.72476 L 54.92567 4.75648 L 55.19153 4.78824 L 55.4574 4.82 L 55.72327 4.85184 L 55.98914 4.88368 L 56.255 4.91562 L 56.52087 4.94756 L 56.78674 4.97955 L 57.05261 5.01157 L 57.31848 5.04362 L 57.58434 5.07573 L 57.8502 5.10788 L 58.11607 5.14005 L 58.38194 5.17227 L 58.64781 5.20454 L 58.91368 5.23686 L 59.17953 5.26921 L 59.4454 5.3016 L 59.71127 5.33401 L 59.97713 5.3665 L 60.243 5.399 L 60.50887 5.43155 L 60.77473 5.46416 L 61.0406 5.49681 L 61.30647 5.52948 L 61.57234 5.5622 L 61.83821 5.59496 L 62.10406 5.62778 L 62.36993 5.66063 L 62.6358 5.69353 L 62.90167 5.72647 L 63.16754 5.75945 L 63.43341 5.79248 L 63.69928 5.82555 L 63.96515 5.85867 L 64.23102 5.89182 L 64.49687 5.925 L 64.76274 5.95825 L 65.02861 5.99155 L 65.29448 6.02489 L 65.56035 6.05826 L 65.82622 6.09169 L 66.09209 6.12515 L 66.35796 6.15866 L 66.62383 6.19223 L 66.88968 6.22585 L 67.15555 6.25949 L 67.42142 6.2932 "/>
<path transform="matrix(1,0,0,-1,34.481,172.565)" stroke-width="1" stroke-linecap="butt" stroke-miterlimit="10" stroke-linejoin="miter" fill="none" stroke="#000000" d="M 27.80685 80.00731 L 28.20695 79.9353 L 28.60707 79.86322 L 29.00719 79.79042 L 29.4073 79.7169 L 29.80742 79.64388 L 30.20753 79.57137 L 30.60765 79.4981 L 31.00775 79.42535 L 31.40787 79.3507 L 31.80798 79.27773 L 32.2081 79.20404 L 32.60822 79.13084 L 33.00833 79.05635 L 33.40845 78.98233 L 33.80856 78.9088 L 34.20866 78.83455 L 34.60878 78.75957 L 35.0089 78.68509 L 35.40901 78.61111 L 35.80913 78.53639 L 36.20924 78.46219 L 36.60936 78.38663 L 37.00946 78.31155 L 37.40958 78.237 L 37.8097 78.1617 L 38.20981 78.08565 L 38.60992 78.01074 L 39.01004 77.93507 L 39.41016 77.8593 L 39.81027 77.78276 L 40.21037 77.70737 L 40.6105 77.63121 L 41.01062 77.55557 L 41.41074 77.47853 L 41.81085 77.40202 L 42.21097 77.32599 L 42.61108 77.24922 L 43.01118 77.17232 L 43.4113 77.09465 L 43.81142 77.01813 L 44.21153 76.94084 L 44.61165 76.86407 L 45.01176 76.78589 L 45.41188 76.7082 L 45.812 76.6304 L 46.2121 76.5531 L 46.61221 76.47438 L 47.01233 76.39618 L 47.41245 76.31848 L 47.81256 76.24 L 48.21268 76.16075 L 48.6128 76.08264 L 49.0129 76.00375 L 49.41301 75.92538 L 49.81313 75.84624 L 50.21324 75.76627 L 50.61336 75.6875 L 51.01347 75.60791 L 51.41359 75.5282 L 51.8137 75.44766 L 52.2138 75.36833 L 52.61392 75.2882 L 53.01404 75.20854 L 53.41415 75.12744 L 53.81427 75.04686 L 54.21439 74.96678 L 54.6145 74.88591 L 55.0146 74.80423 L 55.41472 74.72304 L 55.81483 74.6424 L 56.21495 74.56091 L 56.61507 74.47995 L 57.01518 74.39749 L 57.4153 74.31555 L 57.81541 74.23416 L 58.21552 74.15192 L 58.61563 74.06882 L 59.01575 73.98627 L 59.41586 73.90424 L 59.81598 73.82205 L 60.2161 73.73764 L 60.61621 73.65514 L 61.01631 73.57178 L 61.41643 73.48895 L 61.81654 73.40529 L 62.21666 73.32074 L 62.61678 73.23743 L 63.01689 73.15324 L 63.417 73.0689 L 63.81712 72.98439 L 64.21722 72.8997 L 64.61734 72.81485 L 65.01746 72.73053 L 65.41757 72.64464 L 65.81769 72.55928 L 66.2178 72.47444 L 66.61792 72.38872 L 67.01802 72.30211 L 67.41814 72.21603 "/>
<path transform="matrix(1,0,0,-1,34.481,172.565)" stroke-width="1" stroke-linecap="butt" stroke-miterlimit="10" stroke-linejoin="miter" fill="none" stroke="#000000" d="M 27.80685 80.00731 L 28.20695 79.9353 L 28.60707 79.86322 L 29.00719 79.79042 L 29.4073 79.7169 L 29.80742 79.64388 L 30.20753 79.57137 L 30.60765 79.4981 L 31.00775 79.42535 L 31.40787 79.3507 L 31.80798 79.27773 L 32.2081 79.20404 L 32.60822 79.13084 L 33.00833 79.05635 L 33.40845 78.98233 L 33.80856 78.9088 L 34.20866 78.83455 L 34.60878 78.75957 L 35.0089 78.68509 L 35.40901 78.61111 L 35.80913 78.53639 L 36.20924 78.46219 L 36.60936 78.38663 L 37.00946 78.31155 L 37.40958 78.237 L 37.8097 78.1617 L 38.20981 78.08565 L 38.60992 78.01074 L 39.01004 77.93507 L 39.41016 77.8593 L 39.81027 77.78276 L 40.21037 77.70737 L 40.6105 77.63121 L 41.01062 77.55557 L 41.41074 77.47853 L 41.81085 77.40202 L 42.21097 77.32599 L 42.61108 77.24922 L 43.01118 77.17232 L 43.4113 77.09465 L 43.81142 77.01813 L 44.21153 76.94084 L 44.61165 76.86407 L 45.01176 76.78589 L 45.41188 76.7082 L 45.812 76.6304 L 46.2121 76.5531 L 46.61221 76.47438 L 47.01233 76.39618 L 47.41245 76.31848 L 47.81256 76.24 L 48.21268 76.16075 L 48.6128 76.08264 L 49.0129 76.00375 L 49.41301 75.92538 L 49.81313 75.84624 L 50.21324 75.76627 L 50.61336 75.6875 L 51.01347 75.60791 L 51.41359 75.5282 L 51.8137 75.44766 L 52.2138 75.36833 L 52.61392 75.2882 L 53.01404 75.20854 L 53.41415 75.12744 L 53.81427 75.04686 L 54.21439 74.96678 L 54.6145 74.88591 L 55.0146 74.80423 L 55.41472 74.72304 L 55.81483 74.6424 L 56.21495 74.56091 L 56.61507 74.47995 L 57.01518 74.39749 L 57.4153 74.31555 L 57.81541 74.23416 L 58.21552 74.15192 L 58.61563 74.06882 L 59.01575 73.98627 L 59.41586 73.90424 L 59.81598 73.82205 L 60.2161 73.73764 L 60.61621 73.65514 L 61.01631 73.57178 L 61.41643 73.48895 L 61.81654 73.40529 L 62.21666 73.32074 L 62.61678 73.23743 L 63.01689 73.15324 L 63.417 73.0689 L 63.81712 72.98439 L 64.21722 72.8997 L 64.61734 72.81485 L 65.01746 72.73053 L 65.41757 72.64464 L 65.81769 72.55928 L 66.2178 72.47444 L 66.61792 72.38872 L 67.01802 72.30211 L 67.41814 72.21603 "/>
<path transform="matrix(1,0,0,-1,34.481,172.565)" stroke-width="1" stroke-linecap="butt" stroke-miterlimit="10" stroke-linejoin="miter" fill="none" stroke="#000000" d="M 68.56487 134.66699 L 68.8996 134.48378 L 69.23433 134.30086 L 69.56906 134.11757 L 69.90381 133.93379 L 70.23854 133.74982 L 70.57327 133.56505 L 70.90802 133.38013 L 71.24275 133.1953 L 71.57748 133.00977 L 71.91223 132.82393 L 72.24696 132.63771 L 72.5817 132.45149 L 72.91644 132.26488 L 73.25117 132.07736 L 73.5859 131.89046 L 73.92065 131.70223 L 74.25539 131.514 L 74.59012 131.32509 L 74.92487 131.13636 L 75.25961 130.94736 L 75.59435 130.75759 L 75.92908 130.56723 L 76.26382 130.37717 L 76.59856 130.1867 L 76.93329 129.99559 L 77.26804 129.80367 L 77.60277 129.61246 L 77.9375 129.41986 L 78.27225 129.22765 L 78.60698 129.0349 L 78.94171 128.84145 L 79.27646 128.64739 L 79.61119 128.45357 L 79.94592 128.25934 L 80.28065 128.06414 L 80.6154 127.86885 L 80.95013 127.67348 L 81.28487 127.47728 L 81.61961 127.28084 L 81.95435 127.08455 L 82.28908 126.88695 L 82.62383 126.68944 L 82.95856 126.49136 L 83.29329 126.29317 L 83.62804 126.09358 L 83.96277 125.89458 L 84.2975 125.69453 L 84.63225 125.49495 L 84.96698 125.29427 L 85.30171 125.09314 L 85.63644 124.8914 L 85.97119 124.69003 L 86.30592 124.48746 L 86.64066 124.28502 L 86.9754 124.08203 L 87.31013 123.87845 L 87.64487 123.67401 L 87.97961 123.46974 L 88.31435 123.26498 L 88.64908 123.05956 L 88.98383 122.85335 L 89.31856 122.64723 L 89.65329 122.44034 L 89.98804 122.23344 L 90.32277 122.02594 L 90.6575 121.81743 L 90.99223 121.60861 L 91.32698 121.39964 L 91.66171 121.19037 L 91.99644 120.97986 L 92.33119 120.76944 L 92.66594 120.55823 L 93.00067 120.34657 L 93.33542 120.13406 L 93.67015 119.92163 L 94.00488 119.70882 L 94.33963 119.49518 L 94.67436 119.2809 L 95.0091 119.06625 L 95.34384 118.85135 L 95.67857 118.63554 L 96.0133 118.4189 L 96.34804 118.2027 L 96.68279 117.98528 L 97.01752 117.7674 L 97.35225 117.54912 L 97.687 117.33025 L 98.02173 117.11029 L 98.35646 116.89047 L 98.69121 116.67014 L 99.02594 116.44849 L 99.36067 116.2266 L 99.69542 116.00458 L 100.03015 115.78192 L 100.36488 115.55788 L 100.69963 115.3344 L 101.03436 115.10936 L 101.3691 114.88394 L 101.70383 114.6583 "/>
<path transform="matrix(1,0,0,-1,34.481,172.565)" stroke-width="1" stroke-linecap="butt" stroke-miterlimit="10" stroke-linejoin="miter" fill="none" stroke="#000000" d="M 67.42212 69.66008 L 67.7684 70.11464 L 68.11469 70.56921 L 68.46098 71.0238 L 68.80727 71.4783 L 69.15355 71.93288 L 69.49983 72.38745 L 69.84612 72.84203 L 70.19241 73.2966 L 70.5387 73.7511 L 70.88498 74.20569 L 71.23126 74.66026 L 71.57755 75.11484 L 71.92383 75.56941 L 72.27013 76.02391 L 72.61641 76.47849 L 72.96269 76.93307 L 73.30898 77.38765 L 73.65526 77.84222 L 74.00156 78.29674 L 74.34784 78.75128 L 74.69412 79.20587 L 75.0404 79.66046 L 75.38669 80.11504 L 75.73299 80.56953 L 76.07927 81.02411 L 76.42555 81.47867 L 76.77184 81.93326 L 77.11812 82.38785 L 77.46442 82.84233 L 77.8107 83.29692 L 78.15698 83.7515 L 78.50327 84.20605 L 78.84955 84.66064 L 79.19583 85.11514 L 79.54213 85.56972 L 79.88841 86.0243 L 80.2347 86.47888 L 80.58098 86.93344 L 80.92726 87.38795 L 81.27356 87.84253 L 81.61984 88.2971 L 81.96613 88.7517 L 82.31241 89.20627 L 82.65869 89.66078 L 83.00499 90.11534 L 83.35127 90.56992 L 83.69757 91.0245 L 84.04385 91.47908 L 84.39014 91.93358 L 84.73643 92.38815 L 85.08272 92.84271 L 85.429 93.2973 L 85.77528 93.75189 L 86.12157 94.20638 L 86.46785 94.66096 L 86.81415 95.11554 L 87.16043 95.57011 L 87.50671 96.02469 L 87.853 96.4792 L 88.19928 96.93376 L 88.54558 97.38835 L 88.89186 97.84293 L 89.23814 98.29749 L 89.58443 98.752 L 89.93071 99.20657 L 90.27701 99.66115 L 90.62329 100.11574 L 90.96957 100.57031 L 91.31586 101.02481 L 91.66214 101.47939 L 92.00844 101.93396 L 92.35472 102.38853 L 92.701 102.84312 L 93.04729 103.29762 L 93.39357 103.75218 L 93.73985 104.20677 L 94.08615 104.66135 L 94.43243 105.11592 L 94.77872 105.57042 L 95.125 106.02501 L 95.47128 106.47957 L 95.81758 106.93416 L 96.16386 107.38873 L 96.51015 107.84323 L 96.85643 108.2978 L 97.20271 108.7524 L 97.54901 109.20695 L 97.8953 109.66154 L 98.24158 110.11604 L 98.58786 110.57062 L 98.93414 111.02519 L 99.28044 111.47978 L 99.62672 111.93434 L 99.97302 112.38885 L 100.3193 112.84343 L 100.66559 113.298 L 101.01187 113.75258 L 101.35817 114.20715 L 101.70445 114.66165 "/>
<path transform="matrix(1,0,0,-1,34.481,172.565)" stroke-width="1" stroke-linecap="butt" stroke-miterlimit="10" stroke-linejoin="miter" fill="none" stroke="#000000" d="M 67.42212 4.64662 L 67.7684 5.1012 L 68.11469 5.55579 L 68.46098 6.01035 L 68.80727 6.46486 L 69.15355 6.91943 L 69.49983 7.37402 L 69.84612 7.82858 L 70.19241 8.28317 L 70.5387 8.73767 L 70.88498 9.19225 L 71.23126 9.64684 L 71.57755 10.10141 L 71.92383 10.55597 L 72.27013 11.01048 L 72.61641 11.46506 L 72.96269 11.91963 L 73.30898 12.37422 L 73.65526 12.8288 L 74.00156 13.2833 L 74.34784 13.73787 L 74.69412 14.19244 L 75.0404 14.64702 L 75.38669 15.10161 L 75.73299 15.5561 L 76.07927 16.01068 L 76.42555 16.46524 L 76.77184 16.91983 L 77.11812 17.3744 L 77.46442 17.8289 L 77.8107 18.2835 L 78.15698 18.73805 L 78.50327 19.19263 L 78.84955 19.64722 L 79.19583 20.1017 L 79.54213 20.55629 L 79.88841 21.01088 L 80.2347 21.46544 L 80.58098 21.92001 L 80.92726 22.37453 L 81.27356 22.82909 L 81.61984 23.28368 L 81.96613 23.73827 L 82.31241 24.19283 L 82.65869 24.64734 L 83.00499 25.10191 L 83.35127 25.55647 L 83.69757 26.01106 L 84.04385 26.46565 L 84.39014 26.92014 L 84.73643 27.37473 L 85.08272 27.82928 L 85.429 28.28386 L 85.77528 28.73845 L 86.12157 29.19295 L 86.46785 29.64752 L 86.81415 30.1021 L 87.16043 30.55669 L 87.50671 31.01125 L 87.853 31.46576 L 88.19928 31.92033 L 88.54558 32.37491 L 88.89186 32.82948 L 89.23814 33.28406 L 89.58443 33.73857 L 89.93071 34.19313 L 90.27701 34.64772 L 90.62329 35.10231 L 90.96957 35.55687 L 91.31586 36.01138 L 91.66214 36.46596 L 92.00844 36.92052 L 92.35472 37.3751 L 92.701 37.8297 L 93.04729 38.28418 L 93.39357 38.73877 L 93.73985 39.19334 L 94.08615 39.6479 L 94.43243 40.1025 L 94.77872 40.55699 L 95.125 41.01157 L 95.47128 41.46614 L 95.81758 41.92073 L 96.16386 42.37529 L 96.51015 42.8298 L 96.85643 43.28438 L 97.20271 43.73895 L 97.54901 44.19353 L 97.8953 44.64812 L 98.24158 45.1026 L 98.58786 45.55719 L 98.93414 46.01176 L 99.28044 46.46634 L 99.62672 46.92091 L 99.97302 47.37543 L 100.3193 47.82999 L 100.66559 48.28458 L 101.01187 48.73915 L 101.35817 49.19373 L 101.70445 49.64822 "/>
<symbol id="font_1_1">
<path d="M .205 .64000007 C .205 .66400006 .205 .666 .18200003 .666 C .120000008 .60200008 .032000007 .60200008 0 .60200008 L 0 .57100006 C .020000004 .57100006 .07900001 .57100006 .13100001 .597 L .13100001 .079 C .13100001 .043 .128 .031000002 .038000004 .031000002 L .0060000049 .031000002 L .0060000049 0 C .04100001 .003 .128 .003 .168 .003 C .20800002 .003 .29500003 .003 .33000005 0 L .33000005 .031000002 L .29800005 .031000002 C .20800002 .031000002 .205 .042000005 .205 .079 L .205 .64000007 Z "/>
</symbol>
<use xlink:href="#font_1_1" transform="matrix(9.9626,0,0,-9.9626,82.395679,153.89)"/>
<symbol id="font_1_2">
<path d="M .07700001 .07700001 L .18300002 .18 C .33900003 .31800003 .39900003 .372 .39900003 .47200004 C .39900003 .586 .30900003 .666 .18700002 .666 C .074 .666 0 .574 0 .485 C 0 .42900003 .05 .42900003 .053000008 .42900003 C .07000001 .42900003 .105000007 .441 .105000007 .48200003 C .105000007 .508 .08700001 .53400006 .052000006 .53400006 C .044000005 .53400006 .042000008 .53400006 .039 .53300008 C .062000004 .59800007 .11600001 .63500007 .17400001 .63500007 C .26500003 .63500007 .308 .554 .308 .47200004 C .308 .39200003 .25800003 .31300003 .20300003 .25100003 L .011000004 .037 C 0 .026 0 .024 0 0 L .37100003 0 L .39900003 .17400001 L .374 .17400001 C .36900003 .14400001 .36200003 .1 .352 .085 C .345 .07700001 .279 .07700001 .257 .07700001 L .07700001 .07700001 Z "/>
</symbol>
<use xlink:href="#font_1_2" transform="matrix(9.9626,0,0,-9.9626,120.09814,153.89)"/>
<symbol id="font_1_3">
<path d="M .24800003 .37400005 C .33 .40100003 .388 .47100006 .388 .55 C .388 .632 .3 .688 .204 .688 C .10300001 .688 .027000003 .628 .027000003 .55200007 C .027000003 .519 .049000004 .5 .078 .5 C .109000008 .5 .12900001 .522 .12900001 .55100008 C .12900001 .6010001 .082 .6010001 .067 .6010001 C .098 .65000006 .164 .66300007 .20000002 .66300007 C .24100003 .66300007 .29600004 .64100006 .29600004 .55100008 C .29600004 .53900006 .29400004 .48100005 .268 .43700005 C .238 .38900004 .204 .38600005 .17900002 .38500003 C .171 .38400004 .14700002 .38200004 .14000002 .38200004 C .132 .38100005 .125 .38000003 .125 .37000004 C .125 .35900004 .132 .35900004 .14900002 .35900004 L .19300002 .35900004 C .275 .35900004 .312 .29100005 .312 .193 C .312 .057000005 .24300003 .028 .199 .028 C .15600002 .028 .081 .045 .046000005 .104 C .081 .09900001 .11200001 .12100001 .11200001 .15900001 C .11200001 .19500001 .085 .215 .056 .215 C .031999999 .215 0 .201 0 .157 C 0 .06600001 .093 0 .20200002 0 C .32400004 0 .41500003 .091000009 .41500003 .193 C .41500003 .27500005 .35200004 .35300005 .24800003 .37400005 Z "/>
</symbol>
<use xlink:href="#font_1_3" transform="matrix(9.9626,0,0,-9.9626,158.10942,154.10918)"/>
<use xlink:href="#font_1_4" transform="matrix(9.9626,0,0,-9.9626,196.06095,153.89)"/>
<use xlink:href="#font_1_1" transform="matrix(9.9626,0,0,-9.9626,36.16767,83.55001)"/>
<use xlink:href="#font_0_1" transform="matrix(9.9626,0,0,-9.9626,232.5879,144.06859)"/>
<symbol id="font_0_3">
<path d="M .09 .094000007 C .14400001 .15200001 .17300001 .17700002 .209 .20800002 C .209 .20900002 .271 .26200003 .307 .298 C .402 .39100004 .424 .43900005 .424 .44300003 C .424 .45300005 .41500003 .45300005 .41300003 .45300005 C .40600003 .45300005 .403 .45100004 .398 .44200004 C .368 .39400003 .347 .37800003 .323 .37800003 C .299 .37800003 .287 .39300005 .272 .41000004 C .253 .43300004 .23600002 .45300005 .20300001 .45300005 C .128 .45300005 .082 .36 .082 .33900003 C .082 .33400003 .08500001 .328 .09400001 .328 C .103000018 .328 .105000007 .33300004 .10700001 .33900003 C .12600002 .38500003 .18400002 .38600005 .19200002 .38600005 C .21300002 .38600005 .23200001 .37900005 .255 .37100003 C .29500003 .35600005 .306 .35600005 .33200003 .35600005 C .296 .31300003 .21200003 .24100001 .19300002 .22500003 L .103000018 .14100002 C .035 .074 0 .017 0 .010000001 C 0 0 .010000002 0 .012000002 0 C .02 0 .022000004 .0020000004 .028 .013000001 C .051000004 .048 .081 .075 .113000009 .075 C .136 .075 .14600002 .06600001 .17100002 .037 C .18800001 .016 .20600002 0 .23500003 0 C .334 0 .39200003 .127 .39200003 .15400002 C .39200003 .15900001 .388 .16400002 .38 .16400002 C .37100003 .16400002 .36900003 .158 .366 .15100001 C .343 .086 .279 .067 .246 .067 C .22600003 .067 .20800002 .07300001 .187 .080000009 C .15300001 .093 .13800001 .097 .11700001 .097 C .11500001 .097 .09900001 .097 .09 .094000007 Z "/>
</symbol>
<use xlink:href="#font_0_3" transform="matrix(9.9626,0,0,-9.9626,43.81039,7.719589)"/>
<path transform="matrix(1,0,0,-1,34.481,172.565)" stroke-width="1" stroke-linecap="butt" stroke-miterlimit="10" stroke-linejoin="miter" fill="none" stroke="#808080" d="M 49.51907 28.61604 L 49.51907 32.86803 M 87.61067 28.61604 L 87.61067 32.86803 M 125.70227 28.61604 L 125.70227 32.86803 M 163.79386 28.61604 L 163.79386 32.86803 "/>
<path transform="matrix(1,0,0,-1,34.481,172.565)" stroke-width="1" stroke-linecap="butt" stroke-miterlimit="10" stroke-linejoin="miter" fill="none" stroke="#808080" d="M 9.30148 92.22614 L 13.55344 92.22614 "/>
<path transform="matrix(1,0,0,-1,34.481,172.565)" stroke-width="1" stroke-linecap="butt" stroke-miterlimit="10" stroke-linejoin="miter" fill="none" stroke="#000000" d="M 0 30.74203 L 192.27462 30.74203 "/>
<path transform="matrix(1,0,0,-1,226.75562,141.82297)" d="M 1.99252 0 L -1.19551 1.59401 L 0 0 L -1.19551 -1.59401 "/>
<path transform="matrix(1,0,0,-1,34.481,172.565)" stroke-width="1" stroke-linecap="butt" stroke-miterlimit="10" stroke-linejoin="miter" fill="none" stroke="#000000" d="M 11.42747 0 L 11.42747 159.40323 "/>
<path transform="matrix(0,-1,-1,-0,45.90847,13.161774)" d="M 1.99252 0 L -1.19551 1.59401 L 0 0 L -1.19551 -1.59401 "/>
</svg>
